# xmcd CD database file
# Copyright (C) 1995-1998 Ti Kan
#
# Track frame offsets:
#	150
#	13268
#	28320
#	40151
#	54889
#	66637
#	80709
#	90480
#	103911
#	114590
#
# Disc length: 1708 seconds
#
# Revision: 1
# Processed by: cddbd v1.4PL0 Copyright (c) Steve Scherf et al.
# Submitted via: CDex 1.30Release
#
DISCID=8806aa0a
DTITLE=Kenny Rogers - Sunshine
DYEAR=2001
DGENRE=Country
TTITLE0=Ruby Don't Take Your Love To Town
TTITLE1=Conditions (Just Dropped In)
TTITLE2=Elvira
TTITLE3=All God's Lonely Children
TTITLE4=I Just Want To Give My Love To You
TTITLE5=Sunshine
TTITLE6=Once Again She's All Gone
TTITLE7=A Stranger In My Place
TTITLE8=We All Gotta Help Each Other
TTITLE9=But You Know I Love You
EXTD=YEAR: 2001 ID3G:   2
EXTT0=
EXTT1=
EXTT2=
EXTT3=
EXTT4=
EXTT5=
EXTT6=
EXTT7=
EXTT8=
EXTT9=
PLAYORDER=
